<svg xmlns="http://www.w3.org/2000/svg" xmlns:xlink="http://www.w3.org/1999/xlink" width="500" zoomAndPan="magnify" viewBox="0 0 375 374.999991" height="500" preserveAspectRatio="xMidYMid meet" version="1.0"><defs><g/><clipPath id="1b45887ebd"><path d="M 154.285156 113.070312 L 221 113.070312 L 221 173 L 154.285156 173 Z M 154.285156 113.070312 " clip-rule="nonzero"/></clipPath></defs><path fill="#3973bf" d="M 161.078125 182.394531 C 161.078125 179.890625 164.582031 179.480469 168.414062 181.671875 L 169.730469 178.199219 C 168.324219 177.375 167.222656 176.871094 165.273438 176.699219 L 165.273438 173.339844 C 164.160156 173.738281 163.066406 174.113281 161.855469 174.503906 L 161.855469 176.914062 C 158.875 177.613281 156.871094 179.835938 156.871094 182.796875 C 156.871094 186.234375 159.539062 187.882812 162.753906 189.148438 C 169.542969 191.898438 164.910156 198.011719 157.699219 193.203125 L 156.433594 196.726562 C 157.777344 197.683594 159.296875 198.390625 161.625 198.578125 L 161.625 201.945312 L 165.074219 201.945312 L 165.074219 198.386719 C 170.5625 197.101562 171.578125 191.257812 168.839844 188.152344 C 166.121094 185.058594 161.078125 185.207031 161.078125 182.394531 " fill-opacity="1" fill-rule="nonzero"/><path fill="#3973bf" d="M 177.019531 168.355469 L 177.019531 201.980469 L 184.59375 201.980469 C 184.59375 197.246094 184.59375 168.824219 184.59375 164.078125 C 182.148438 165.605469 179.65625 167.011719 177.019531 168.355469 " fill-opacity="1" fill-rule="nonzero"/><g clip-path="url(#1b45887ebd)"><path fill="#3973bf" d="M 217.125 113.035156 C 214.574219 114.527344 208.492188 118.09375 206.707031 119.140625 L 209.664062 120.28125 C 210.789062 119.609375 210.191406 119.964844 212.695312 118.476562 C 203.863281 146.085938 176.953125 163.351562 154.4375 168.355469 C 154.957031 170.800781 154.765625 169.894531 155.28125 172.332031 C 162.03125 170.90625 204.070312 158.957031 216.617188 119.566406 C 217.585938 122.679688 217.3125 121.785156 217.804688 123.367188 L 220.695312 124.488281 C 217.515625 114.285156 218.464844 117.328125 217.125 113.035156 " fill-opacity="1" fill-rule="nonzero"/></g><path fill="#3973bf" d="M 191.328125 201.980469 L 198.902344 201.980469 C 198.902344 195.898438 198.902344 159.183594 198.902344 153.03125 C 196.546875 155.28125 194.019531 157.429688 191.328125 159.457031 C 191.328125 177.761719 191.328125 183.800781 191.328125 201.980469 " fill-opacity="1" fill-rule="nonzero"/><path fill="#3973bf" d="M 205.636719 201.980469 L 213.210938 201.980469 C 213.210938 186.105469 213.210938 149.25 213.210938 134.222656 C 211.074219 138.257812 208.550781 142.09375 205.636719 145.710938 C 205.636719 152.519531 205.636719 195.183594 205.636719 201.980469 " fill-opacity="1" fill-rule="nonzero"/><g fill="#000000" fill-opacity="1"><g transform="translate(142.675776, 238.593851)"><g><path d="M 2.046875 -22.34375 C 2.242188 -22.34375 2.640625 -22.347656 3.234375 -22.359375 C 3.828125 -22.367188 4.484375 -22.375 5.203125 -22.375 C 5.929688 -22.375 6.632812 -22.378906 7.3125 -22.390625 C 8 -22.398438 8.53125 -22.40625 8.90625 -22.40625 C 11.726562 -22.40625 13.84375 -21.863281 15.25 -20.78125 C 16.65625 -19.707031 17.359375 -18.113281 17.359375 -16 C 17.359375 -14.59375 17.015625 -13.429688 16.328125 -12.515625 C 15.648438 -11.609375 14.726562 -10.898438 13.5625 -10.390625 C 14.21875 -10.015625 14.800781 -9.519531 15.3125 -8.90625 C 15.820312 -8.289062 16.304688 -7.546875 16.765625 -6.671875 C 17.222656 -5.804688 17.6875 -4.8125 18.15625 -3.6875 C 18.632812 -2.570312 19.160156 -1.34375 19.734375 0 L 13.890625 0 C 13.191406 -1.539062 12.597656 -2.898438 12.109375 -4.078125 C 11.628906 -5.253906 11.175781 -6.242188 10.75 -7.046875 C 10.332031 -7.847656 9.921875 -8.453125 9.515625 -8.859375 C 9.109375 -9.265625 8.617188 -9.46875 8.046875 -9.46875 L 7.484375 -9.46875 L 7.484375 0 L 2.046875 0 Z M 7.484375 -12.875 L 8.875 -12.875 C 9.644531 -12.875 10.300781 -13.109375 10.84375 -13.578125 C 11.382812 -14.046875 11.65625 -14.789062 11.65625 -15.8125 C 11.65625 -16.226562 11.601562 -16.613281 11.5 -16.96875 C 11.40625 -17.332031 11.242188 -17.648438 11.015625 -17.921875 C 10.796875 -18.203125 10.492188 -18.425781 10.109375 -18.59375 C 9.722656 -18.757812 9.257812 -18.84375 8.71875 -18.84375 L 7.484375 -18.84375 Z M 7.484375 -12.875 "/></g></g></g><g fill="#000000" fill-opacity="1"><g transform="translate(162.435773, 238.593851)"><g><path d="M 2.046875 -22.34375 L 16.265625 -22.34375 L 16.265625 -18.375 L 7.484375 -18.375 L 7.484375 -13.265625 L 14.84375 -13.265625 L 14.1875 -9.34375 L 7.484375 -9.34375 L 7.484375 0 L 2.046875 0 Z M 2.046875 -22.34375 "/></g></g></g><g fill="#000000" fill-opacity="1"><g transform="translate(178.962917, 238.593851)"><g><path d="M 2.046875 -22.34375 L 7.484375 -22.34375 L 7.484375 -4 L 15.34375 -4 L 15.34375 0 L 2.046875 0 Z M 2.046875 -22.34375 "/></g></g></g><g fill="#000000" fill-opacity="1"><g transform="translate(194.071567, 238.593851)"><g><path d="M 2.046875 -22.34375 L 16.265625 -22.34375 L 16.265625 -18.34375 L 7.484375 -18.34375 L 7.484375 -13.5625 L 14.78125 -13.5625 L 14.15625 -9.640625 L 7.484375 -9.640625 L 7.484375 -4 L 16.734375 -4 L 16.734375 0 L 2.046875 0 Z M 2.046875 -22.34375 "/></g></g></g><g fill="#000000" fill-opacity="1"><g transform="translate(211.357443, 238.593851)"><g><path d="M 0 0 L 6.9375 -11.71875 L 0.65625 -22.34375 L 6.59375 -22.34375 L 9.734375 -16.703125 C 9.816406 -16.546875 9.921875 -16.335938 10.046875 -16.078125 C 10.171875 -15.828125 10.3125 -15.570312 10.46875 -15.3125 C 10.613281 -15.550781 10.75 -15.789062 10.875 -16.03125 C 11 -16.28125 11.113281 -16.492188 11.21875 -16.671875 L 14.390625 -22.34375 L 20.328125 -22.34375 L 14.03125 -11.6875 L 20.953125 0 L 14.953125 0 L 11.25 -6.59375 C 11.144531 -6.769531 11.023438 -6.984375 10.890625 -7.234375 C 10.753906 -7.492188 10.613281 -7.753906 10.46875 -8.015625 L 9.703125 -6.59375 L 6 0 Z M 0 0 "/></g></g></g><g fill="#000000" fill-opacity="1"><g transform="translate(172.153902, 257.986068)"><g><path d="M 4.78125 0.1875 C 3.832031 0.1875 3.0625 0.03125 2.46875 -0.28125 C 1.882812 -0.601562 1.457031 -1.050781 1.1875 -1.625 C 0.914062 -2.195312 0.78125 -2.851562 0.78125 -3.59375 L 0.78125 -9.921875 L 2.671875 -9.921875 L 2.671875 -3.59375 C 2.671875 -3.1875 2.734375 -2.820312 2.859375 -2.5 C 2.992188 -2.1875 3.210938 -1.941406 3.515625 -1.765625 C 3.828125 -1.585938 4.25 -1.5 4.78125 -1.5 C 5.320312 -1.5 5.742188 -1.585938 6.046875 -1.765625 C 6.359375 -1.941406 6.578125 -2.1875 6.703125 -2.5 C 6.835938 -2.820312 6.90625 -3.1875 6.90625 -3.59375 L 6.90625 -9.921875 L 8.78125 -9.921875 L 8.78125 -3.59375 C 8.78125 -2.851562 8.644531 -2.195312 8.375 -1.625 C 8.101562 -1.050781 7.671875 -0.601562 7.078125 -0.28125 C 6.492188 0.03125 5.726562 0.1875 4.78125 0.1875 Z M 4.78125 0.1875 "/></g></g></g><g fill="#000000" fill-opacity="1"><g transform="translate(183.031962, 257.986068)"><g><path d="M 4.828125 0.1875 C 4.347656 0.1875 3.863281 0.125 3.375 0 C 2.882812 -0.113281 2.429688 -0.300781 2.015625 -0.5625 C 1.597656 -0.820312 1.25 -1.171875 0.96875 -1.609375 C 0.6875 -2.046875 0.515625 -2.582031 0.453125 -3.21875 L 2.390625 -3.21875 C 2.503906 -2.75 2.6875 -2.382812 2.9375 -2.125 C 3.1875 -1.863281 3.476562 -1.679688 3.8125 -1.578125 C 4.144531 -1.472656 4.488281 -1.421875 4.84375 -1.421875 C 5.351562 -1.421875 5.78125 -1.523438 6.125 -1.734375 C 6.46875 -1.953125 6.640625 -2.300781 6.640625 -2.78125 C 6.640625 -3.125 6.523438 -3.390625 6.296875 -3.578125 C 6.078125 -3.773438 5.785156 -3.925781 5.421875 -4.03125 C 5.066406 -4.144531 4.675781 -4.242188 4.25 -4.328125 C 3.84375 -4.421875 3.4375 -4.523438 3.03125 -4.640625 C 2.625 -4.753906 2.25 -4.910156 1.90625 -5.109375 C 1.5625 -5.304688 1.285156 -5.570312 1.078125 -5.90625 C 0.878906 -6.238281 0.78125 -6.664062 0.78125 -7.1875 C 0.78125 -7.832031 0.929688 -8.367188 1.234375 -8.796875 C 1.546875 -9.222656 1.960938 -9.546875 2.484375 -9.765625 C 3.015625 -9.984375 3.617188 -10.09375 4.296875 -10.09375 C 4.929688 -10.09375 5.53125 -9.976562 6.09375 -9.75 C 6.65625 -9.53125 7.128906 -9.191406 7.515625 -8.734375 C 7.910156 -8.273438 8.160156 -7.6875 8.265625 -6.96875 L 6.359375 -6.96875 C 6.234375 -7.5 5.976562 -7.882812 5.59375 -8.125 C 5.207031 -8.375 4.757812 -8.5 4.25 -8.5 C 3.78125 -8.5 3.394531 -8.398438 3.09375 -8.203125 C 2.789062 -8.015625 2.640625 -7.726562 2.640625 -7.34375 C 2.640625 -7.039062 2.742188 -6.800781 2.953125 -6.625 C 3.171875 -6.457031 3.453125 -6.320312 3.796875 -6.21875 C 4.140625 -6.125 4.507812 -6.023438 4.90625 -5.921875 C 5.320312 -5.835938 5.738281 -5.734375 6.15625 -5.609375 C 6.582031 -5.484375 6.972656 -5.3125 7.328125 -5.09375 C 7.691406 -4.882812 7.984375 -4.601562 8.203125 -4.25 C 8.421875 -3.894531 8.53125 -3.4375 8.53125 -2.875 C 8.53125 -1.9375 8.203125 -1.191406 7.546875 -0.640625 C 6.898438 -0.0859375 5.992188 0.1875 4.828125 0.1875 Z M 4.828125 0.1875 "/></g></g></g><g fill="#000000" fill-opacity="1"><g transform="translate(193.377186, 257.986068)"><g><path d="M 3.765625 0 L 0.890625 0 L 0.890625 -9.921875 L 3.765625 -9.921875 C 5.453125 -9.921875 6.738281 -9.488281 7.625 -8.625 C 8.507812 -7.769531 8.953125 -6.546875 8.953125 -4.953125 C 8.953125 -3.367188 8.503906 -2.144531 7.609375 -1.28125 C 6.722656 -0.425781 5.441406 0 3.765625 0 Z M 2.75 -8.234375 L 2.75 -1.671875 L 3.75 -1.671875 C 4.40625 -1.671875 4.984375 -1.769531 5.484375 -1.96875 C 5.984375 -2.175781 6.375 -2.519531 6.65625 -3 C 6.9375 -3.488281 7.078125 -4.140625 7.078125 -4.953125 C 7.078125 -5.722656 6.9375 -6.347656 6.65625 -6.828125 C 6.382812 -7.304688 6 -7.660156 5.5 -7.890625 C 5.007812 -8.117188 4.425781 -8.234375 3.75 -8.234375 Z M 2.75 -8.234375 "/></g></g></g></svg>